name rise30.3154peak39.0474fall46.5389.mot
datacolumns 19
datarows 17
range 13.24662400000000 13.27328400000000
endheader
time	ground_force1_vx	ground_force1_vy	ground_force1_vz	ground_force1_px	ground_force1_py	ground_force1_pz	ground_force2_vx	ground_force2_vy	ground_force2_vz	ground_force2_px	ground_force2_py	ground_force2_pz	ground_torque1_x	ground_torque1_y	ground_torque1_z	ground_torque2_x	ground_torque2_y	ground_torque2_z	
13.24662400000000	-47.20652200000000	797.96795099999997	55.16971900000000	0.15576700000000	0.00000000000000	0.09477800000000	-3.57881600000000	16.38686300000000	3.86503200000000	0.00000000000000	0.00000000000000	0.00000000000000	0.00000000000000	25.12937600000000	0.00000000000000	0.00000000000000	1.54246300000000	0.00000000000000	
13.24828900000000	-47.50545200000000	795.74770300000000	55.05156600000000	0.15479400000000	0.00000000000000	0.09471200000000	-4.46621800000000	22.12573900000000	4.97376500000000	0.00000000000000	0.00000000000000	0.00000000000000	0.00000000000000	25.01284400000000	0.00000000000000	0.00000000000000	1.99552500000000	0.00000000000000	
13.24995400000000	-47.82779400000000	793.44042999999999	54.91657500000000	0.15380500000000	0.00000000000000	0.09464300000000	-5.34723400000000	28.44841500000000	6.12943500000000	0.35233300000000	0.00000000000000	-0.08295700000000	0.00000000000000	24.89550100000000	0.00000000000000	0.00000000000000	4.18747000000000	0.00000000000000	
13.25162400000000	-48.17387100000000	791.04601000000002	54.76443000000000	0.15280100000000	0.00000000000000	0.09457200000000	-6.18432600000000	35.24044700000000	7.29603000000000	0.35606900000000	0.00000000000000	-0.08430200000000	0.00000000000000	24.77746600000000	0.00000000000000	0.00000000000000	5.03293700000000	0.00000000000000	
13.25328800000000	-48.54391400000000	788.56422199999997	54.59483800000000	0.15178400000000	0.00000000000000	0.09449900000000	-6.94123700000000	42.37768800000000	8.43740900000000	0.35954900000000	0.00000000000000	-0.08548000000000	0.00000000000000	24.65885200000000	0.00000000000000	0.00000000000000	5.87666300000000	0.00000000000000	
13.25495300000000	-48.93805700000000	785.99473799999998	54.40752300000000	0.15075500000000	0.00000000000000	0.09442400000000	-7.58557400000000	49.73672000000000	9.51996800000000	0.36282600000000	0.00000000000000	-0.08652100000000	0.00000000000000	24.53976600000000	0.00000000000000	0.00000000000000	6.69600000000000	0.00000000000000	
13.25662000000000	-49.35634400000000	783.33711800000003	54.20223300000000	0.14971600000000	0.00000000000000	0.09434500000000	-8.09087200000000	57.20430800000000	10.51489200000000	0.36594100000000	0.00000000000000	-0.08744800000000	0.00000000000000	24.42031400000000	0.00000000000000	0.00000000000000	7.47109100000000	0.00000000000000	
13.25828600000000	-49.79871900000000	780.59080900000004	53.97873400000000	0.14866900000000	0.00000000000000	0.09426400000000	-8.43795700000000	64.68487399999999	11.39974700000000	0.36892600000000	0.00000000000000	-0.08828000000000	0.00000000000000	24.30059100000000	0.00000000000000	0.00000000000000	8.18602300000000	0.00000000000000	
13.25995600000000	-50.26503000000000	777.75513899999999	53.73681800000000	0.14761600000000	0.00000000000000	0.09418100000000	-8.61552700000000	72.10543000000000	12.15934600000000	0.37180500000000	0.00000000000000	-0.08903000000000	0.00000000000000	24.18068900000000	0.00000000000000	0.00000000000000	8.82950300000000	0.00000000000000	
13.26161600000000	-50.75502800000000	774.82932100000005	53.47629700000000	0.14655900000000	0.00000000000000	0.09409400000000	-8.62000800000000	79.41788800000000	12.78587500000000	0.37459500000000	0.00000000000000	-0.08971100000000	0.00000000000000	24.06068900000000	0.00000000000000	0.00000000000000	9.39505900000000	0.00000000000000	
13.26329100000000	-51.26836400000000	771.81244900000002	53.19700900000000	0.14550000000000	0.00000000000000	0.09400300000000	-8.45481200000000	86.59892900000000	13.27841000000000	0.37731100000000	0.00000000000000	-0.09033200000000	0.00000000000000	23.94066500000000	0.00000000000000	0.00000000000000	9.88081100000000	0.00000000000000	
13.26495800000000	-51.80459100000000	768.70349899999997	52.89881400000000	0.14444000000000	0.00000000000000	0.09391000000000	-8.12913500000000	93.64784800000000	13.64194200000000	0.37996500000000	0.00000000000000	-0.09090200000000	0.00000000000000	23.82068100000000	0.00000000000000	0.00000000000000	10.28890800000000	0.00000000000000	
13.26662000000000	-52.36316300000000	765.50132799999994	52.58159900000000	0.14338100000000	0.00000000000000	0.09381300000000	-7.65650300000000	100.58291199999999	13.88609000000000	0.38256400000000	0.00000000000000	-0.09142600000000	0.00000000000000	23.70079100000000	0.00000000000000	0.00000000000000	10.62473400000000	0.00000000000000	
13.26829000000000	-52.94343400000000	762.20468300000005	52.24527700000000	0.14232700000000	0.00000000000000	0.09371200000000	-7.05320200000000	107.43678700000000	14.02365400000000	0.38511600000000	0.00000000000000	-0.09191000000000	0.00000000000000	23.58103900000000	0.00000000000000	0.00000000000000	10.89597300000000	0.00000000000000	
13.26995600000000	-53.54466300000000	758.81219799999997	51.88978500000000	0.14127800000000	0.00000000000000	0.09360800000000	-6.33676400000000	114.25157400000001	14.06917000000000	0.38762600000000	0.00000000000000	-0.09235900000000	0.00000000000000	23.46145700000000	0.00000000000000	0.00000000000000	11.11165700000000	0.00000000000000	
13.27162100000000	-54.16600900000000	755.32239800000002	51.51508900000000	0.14023700000000	0.00000000000000	0.09350000000000	-5.52460800000000	121.07393000000000	14.03755800000000	0.39009800000000	0.00000000000000	-0.09277700000000	0.00000000000000	23.34206400000000	0.00000000000000	0.00000000000000	11.28125800000000	0.00000000000000	
13.27328400000000	-54.80653600000000	751.73370899999998	51.12118200000000	0.13920500000000	0.00000000000000	0.09338900000000	-4.63292500000000	127.95064499999999	13.94298700000000	0.39253500000000	0.00000000000000	-0.09316700000000	0.00000000000000	23.22286800000000	0.00000000000000	0.00000000000000	11.41389600000000	0.00000000000000	
